Coordinates
version=1
nRows=7
nColumns=40
inDegrees=yes

Units are S.I. units (second, meters, Newtons, ...)
Angles are in degrees.

endheader
time	pelvis_tilt	pelvis_list	pelvis_rotation	pelvis_tx	pelvis_ty	pelvis_tz	hip_flexion_r	hip_adduction_r	hip_rotation_r	knee_angle_r	knee_angle_r_beta	ankle_angle_r	subtalar_angle_r	mtp_angle_r	hip_flexion_l	hip_adduction_l	hip_rotation_l	knee_angle_l	knee_angle_l_beta	ankle_angle_l	subtalar_angle_l	mtp_angle_l	lumbar_extension	lumbar_bending	lumbar_rotation	arm_flex_r	arm_add_r	arm_rot_r	elbow_flex_r	pro_sup_r	wrist_flex_r	wrist_dev_r	arm_flex_l	arm_add_l	arm_rot_l	elbow_flex_l	pro_sup_l	wrist_flex_l	wrist_dev_l
     42.18000000	     -0.49913965	     -3.47931577	      2.07808344	      1.12670466	      0.91773322	      0.37847031	     23.58659138	     -8.40470687	     -2.43259489	     67.80247063	     67.80247063	      6.32373689	    -18.97528583	     11.06434834	     18.26948415	     -1.14358270	     -1.56535122	     33.10159285	     33.10159285	     18.22755495	    -17.18188285	      2.60518326	     -9.81438252	      4.85775553	      1.59138044	     15.06652280	    -11.47047054	     -6.05901506	     30.10734527	     46.49697907	      0.00000000	      0.00000000	     24.39943694	    -13.91653414	     13.55331580	     37.77064082	     45.98031548	      0.00000000	      0.00000000
     42.20085714	     -0.26228089	     -3.29944409	      1.59458240	      1.12753051	      0.91704876	      0.37717322	     24.58741306	     -8.59507024	     -2.06908062	     67.72735405	     67.72735405	      6.88241369	    -18.96936608	     11.26604323	     17.76786453	     -0.90853461	     -1.85642972	     33.45602208	     33.45602208	     18.80156125	    -17.47226540	      2.92347249	     -9.85027687	      4.99587616	      2.48634107	     10.91347909	    -11.95825785	     -5.89383399	     27.80820135	     46.54530752	      0.00000000	      0.00000000	     26.36629479	    -13.53056098	     12.91095811	     39.93347749	     46.09199897	      0.00000000	      0.00000000
     42.22171429	     -0.03662754	     -3.27871658	      1.16205095	      1.12828162	      0.91696825	      0.37633205	     25.27996337	     -8.61033715	     -1.98673628	     66.63984930	     66.63984930	      7.55858851	    -18.94541788	     11.18514188	     17.14821283	     -0.87512334	     -2.11575186	     33.52934500	     33.52934500	     19.22264730	    -17.62226150	      2.99086400	     -9.91523857	      5.32233498	      1.70914209	      7.63086577	    -11.73317325	     -5.84221599	     26.50358948	     46.56646970	      0.00000000	      0.00000000	     27.76449537	    -14.41232452	     12.44821271	     40.72898121	     46.16238400	      0.00000000	      0.00000000
     42.24257143	      0.16443303	     -3.27597405	      0.53713497	      1.12889931	      0.91748493	      0.37602845	     25.76407492	     -8.51254237	     -1.86578553	     64.63758801	     64.63758801	      8.31190056	    -18.82063236	     10.72873664	     16.39555264	     -0.92276959	     -2.57996574	     33.32679202	     33.32679202	     19.66642970	    -17.65783609	      3.47114241	    -10.11749190	      5.63564658	      2.28175147	      3.89037015	    -12.01886486	     -5.70500444	     24.92527952	     46.58939212	      0.00000000	      0.00000000	     29.39804638	    -14.46669928	     11.58636976	     42.98693743	     46.28904370	      0.00000000	      0.00000000
     42.26342857	      0.04111582	     -3.30699202	     -0.07892580	      1.12917355	      0.91798950	      0.37624812	     26.41370273	     -8.33195375	     -1.84001556	     61.94259134	     61.94259134	      9.12440729	    -18.55193086	     10.51212820	     15.96324533	     -1.04448779	     -3.07203238	     32.99078001	     32.99078001	     19.85950645	    -17.69485067	      3.61977130	     -9.89812215	      5.99244932	      1.48485998	      0.96852570	    -11.92482708	     -5.71794726	     23.93700796	     46.60489052	      0.00000000	      0.00000000	     30.75257266	    -15.71482669	     11.05044147	     43.67354286	     46.36179523	      0.00000000	      0.00000000
     42.28428571	      0.13766649	     -3.38253563	     -0.84673433	      1.12950267	      0.91948355	      0.37683645	     26.27566917	     -8.15902868	     -2.03683303	     57.96240985	     57.96240985	      8.13591798	    -18.37605708	      4.56370244	     15.03806634	     -1.23396095	     -3.70736070	     32.25241721	     32.25241721	     20.20405507	    -17.51438092	      4.31155441	    -10.21782200	      6.33517010	      1.38907916	     -2.69420163	    -12.21537137	     -5.66645427	     24.90724943	     46.52259194	      0.00000000	      0.00000000	     31.04656193	    -16.26621174	      8.12848287	     48.27470942	     46.67987768	      0.00000000	      0.00000000
     42.30514286	      0.03098279	     -3.54373840	     -1.64562421	      1.12952860	      0.92105952	      0.37812566	     26.30362291	     -7.64740405	     -2.03166965	     53.79438512	     53.79438512	      8.65760174	    -17.50488129	      4.00210107	     14.28977921	     -1.56913923	     -4.39544177	     31.37452489	     31.37452489	     20.20636817	    -17.40761870	      4.44286729	    -10.21097621	      6.73486932	      1.15745447	     -5.35443633	    -12.34395130	     -5.64498830	     24.01416051	     46.53517316	      0.00000000	      0.00000000	     32.52274768	    -17.16656901	      7.57297909	     49.20822645	     46.75320754	      0.00000000	      0.00000000
